PathFileType	4	(X/Y/Z)	C:/Users/beibeiliu/ov580/test_trc/User1\sequence.37_training_dense_right.trc
DataRate	CameraRate	NumFrames	NumMarkers	Units	OrigDataRate	OrigDataStartFrame	OrigNumFrames
120	120	20	19	mm	120	31	243
Frame#	Time	ThumbCMC			ThumbMCP			ThumbIP			ThumbTip			IndexMCP			IndexPIP			IndexTip			MiddleMCP			MiddlePIP			MiddleTip			RingMCP			RingPIP			RingTip			PinkyMCP			PinkyPIP			PinkyTip			BackHand1			BackHand2			BackHand3	
		X0	Y0	Z0	X1	Y1	Z1	X2	Y2	Z2	X3	Y3	Z3	X4	Y4	Z4	X5	Y5	Z5	X6	Y6	Z6	X7	Y7	Z7	X8	Y8	Z8	X9	Y9	Z9	X10	Y10	Z10	X11	Y11	Z11	X12	Y12	Z12	X13	Y13	Z13	X14	Y14	Z14	X15	Y15	Z15	X16	Y16	Z16	X17	Y17	Z17	X18	Y18	Z18	
30	0.25	184.187	-15.5789	53.8958	172.893	-0.208916	26.0978	163.742	-1.19504	0.275556	149.525	-11.2179	-20.3152	171.512	-40.2818	-26.2767	139.194	-45.4161	-30.0928	118.776	-39.9792	-5.99856	166.331	-69.1059	-25.5003	130.847	-62.8735	-26.5495	115.043	-52.0933	6.15588	160.182	-89.8499	-16.2812	128.256	-79.0864	-19.5335	112.441	-68.2168	10.8152	158.195	-103.681	3.13384	132.887	-91.7257	-3.57382	120.31	-70.9609	12.5731	196.91	-85.3626	38.1546	200.296	-79.0524	71.26	205.663	-46.9864	49.1455	
31	0.258333	184.818	-16.1276	56.2596	174.123	-0.495551	24.3758	165.089	-2.55185	-0.211807	147.877	-15.2174	-21.9154	174.686	-44.4222	-24.1814	140.178	-43.5098	-31.3279	118.834	-40.7326	-4.46576	167.109	-69.8949	-26.4517	132.883	-64.6801	-27.0667	114.617	-49.5348	6.31889	160.983	-88.2221	-16.4971	128.573	-80.9493	-18.7999	113.758	-66.3177	3.76747	158.378	-106.105	4.59856	134.374	-93.7187	-4.13286	122.241	-69.1058	11.9669	197.283	-83.6231	37.9439	202.706	-76.9597	74.2363	205.302	-50.452	49.7081	
32	0.266667	185.957	-13.422	59.138	175.179	0.78094	24.1829	165.842	-2.43186	-3.41052	147.851	-19.5813	-20.3904	176.495	-43.505	-23.8747	140.445	-40.1097	-31.946	120.579	-37.9804	-8.68362	170.739	-68.6323	-23.4718	134.326	-60.1712	-28.1504	115.232	-52.8437	5.18799	163.559	-89.2329	-15.0272	131.308	-80.4009	-21.1951	113.26	-68.2939	5.97657	160.802	-105.148	5.16185	132.608	-97.3024	-4.21226	122.382	-69.2949	13.8355	198.395	-86.817	40.6238	199.777	-81.9688	73.6215	206.125	-51.5125	47.455	
33	0.275	185.733	-15.7079	57.8265	175.526	2.28807	28.3577	164.679	-2.71815	0.184036	147.188	-21.0143	-20.7825	173.93	-40.8816	-26.7375	143.373	-42.2173	-33.0909	119.986	-40.7954	-7.95813	170.494	-71.8934	-22.1347	135.1	-62.2999	-28.8766	115.825	-51.103	1.5416	160.955	-90.7878	-16.6673	130.385	-82.6225	-20.8682	114.126	-71.5453	3.7214	159.091	-106.135	3.16794	133.289	-96.6375	-5.51672	118.17	-70.0898	13.6031	199.812	-86.1007	40.3569	201.094	-79.7686	71.6106	205.849	-47.0915	50.5654	
34	0.283333	186.219	-17.8958	55.9191	176.747	0.826886	25.1156	165.597	-6.88829	3.14127	146.354	-23.1911	-19.0308	174.344	-46.326	-24.084	140.242	-40.7833	-32.4781	119.491	-39.5582	-8.98775	168.721	-66.8184	-26.2212	136.173	-62.4669	-29.099	116.445	-51.8379	5.31239	163.358	-88.8718	-15.9706	132.523	-83.2747	-20.905	114.458	-66.1187	6.00337	159.353	-105.689	3.54936	133.185	-96.4706	-4.76253	121.412	-71.0049	11.2261	196.38	-87.4547	42.3185	199.568	-79.5475	75.1363	205.704	-49.5945	47.9423	
35	0.291667	186.529	-18.1417	60.4541	177.746	-0.433712	25.1385	165.437	-5.26521	0.629687	148.038	-25.3461	-12.197	173.73	-41.7588	-26.5917	144.131	-45.348	-30.8587	119.813	-38.2656	-9.29484	168.175	-68.9042	-26.6297	134.585	-62.8047	-28.2448	115.514	-55.4778	4.46504	163.807	-91.8964	-14.0108	130.583	-79.0515	-20.5344	113.979	-68.6463	8.48351	159.017	-105.08	1.51055	136.914	-96.139	-5.52648	121.984	-72.3	13.0145	199.718	-84.8098	41.2212	200.604	-80.2238	77.776	206.862	-52.6538	50.3152	
36	0.3	187.924	-18.4398	57.3332	177.185	-0.386828	29.7625	164.926	-8.95486	-1.31832	145.907	-26.7147	-11.5843	174.548	-45.5388	-24.8254	143.692	-41.8295	-32.0238	120.566	-41.7061	-7.76569	169.319	-65.7629	-25.9004	136.559	-62.7193	-28.3509	114.634	-50.0799	3.87514	164.228	-89.6467	-14.0162	129.628	-79.4025	-18.6977	115.511	-66.6402	7.9646	159.753	-107.286	5.94755	130.621	-93.8825	-4.07125	121.506	-71.619	9.80481	197.046	-85.146	41.559	201.463	-80.098	72.6192	206.496	-51.4217	53.3671	
37	0.308333	186.215	-18.787	61.4418	176.995	1.86356	29.4507	163.292	-8.71495	-1.18797	144.19	-29.3294	-9.20591	175.219	-44.1644	-22.4612	144.116	-44.5362	-30.8627	119.385	-35.7798	-7.63124	169.335	-68.1225	-25.3972	135.013	-63.8778	-27.7824	114.689	-52.998	4.36041	164.137	-90.0245	-14.4293	128.923	-78.2048	-18.5428	115.571	-64.8002	5.47179	156.991	-107.282	4.4504	130.764	-93.0705	-3.60018	122.243	-68.2096	14.025	198.162	-86.9496	42.9611	201.053	-84.3029	73.4517	206.562	-52.3523	48.2792	
38	0.316667	186.402	-16.6879	62.2481	176.568	2.06653	29.8598	163.072	-8.55525	0.61297	143.354	-26.9369	-7.13883	171.708	-42.1675	-24.8917	141.174	-39.5994	-30.6331	119.394	-35.9078	-3.89879	169.247	-69.0685	-24.1194	136.21	-59.5707	-29.3895	113.649	-48.1681	2.76182	161.24	-85.694	-16.7731	130.671	-79.9934	-20.3227	114.947	-63.5317	5.56628	159.176	-104.808	5.01208	133.295	-95.8808	-4.79055	122.312	-70.1932	11.7283	196.12	-84.5719	42.2106	200.762	-79.6766	72.5208	207.292	-51.5472	49.5063	
39	0.325	186.035	-11.3028	61.6313	175.524	1.4004	26.9255	162.207	-9.64271	3.12402	142.798	-24.9644	-6.25956	174.894	-37.4451	-21.1799	142.412	-36.7455	-31.7957	118.502	-33.2854	-4.8284	168.172	-62.6313	-26.6952	132.404	-58.4655	-28.5237	112.966	-50.1664	3.96822	159.409	-86.6951	-17.0517	129	-76.1668	-19.9328	114.317	-62.4633	7.82435	159.817	-100.438	2.54737	131.697	-91.8791	-5.22227	120.883	-68.5734	15.2446	195.877	-85.4852	41.1152	198.748	-80.3244	75.8733	206.726	-47.667	49.0548	
40	0.333333	185.494	-11.9471	59.1553	172.946	3.19537	30.149	159.902	-4.17951	3.70055	143.262	-23.3095	-8.81732	173.54	-36.3177	-22.6767	140.411	-39.637	-29.3448	117.964	-35.487	0.733489	168.404	-65.9557	-24.7747	135.84	-58.2407	-29.5945	112.009	-49.8388	2.5024	162.224	-87.497	-13.5779	129.487	-76.8074	-19.9127	112.441	-66.5648	5.99191	158.013	-104.418	3.49076	130.443	-93.1392	-4.48421	118.395	-70.6726	14.7273	196.37	-81.78	39.8784	200.93	-78.943	74.567	203.458	-49.0707	50.5734	
41	0.341667	182.684	-13.5111	59.8949	169.704	5.67252	32.0718	158.892	-4.13422	3.4183	140.805	-19.5498	-14.2359	172.051	-34.3115	-23.1536	138.372	-37.7396	-28.5941	118.329	-34.0941	-2.17533	165.994	-62.4275	-27.0395	132.377	-60.1559	-27.9831	111.521	-52.0325	5.02402	159.717	-86.0728	-16.5742	130.732	-76.5641	-21.2149	112.92	-65.4971	9.62398	159.079	-104.258	5.03287	131.265	-88.9445	-4.07577	118.657	-71.0402	14.0954	197.548	-82.4604	41.8374	198.186	-78.2724	71.6764	203.733	-44.6103	50.9303	
42	0.35	180.916	-14.9133	58.2329	165.746	2.43636	32.6972	155.73	-0.259186	1.69358	139.487	-11.845	-19.8109	167.83	-38.1025	-24.1291	138.574	-39.4155	-27.5902	118.274	-36.0432	-0.32244	164.164	-64.8734	-26.4216	133.015	-60.8232	-28.3732	110.779	-50.8027	4.00868	160.92	-82.3469	-15.5059	127.558	-75.6883	-18.9273	113.677	-62.7933	6.11871	157.413	-104.663	4.37584	130.634	-93.3729	-5.09045	119.25	-68.2414	16.0264	196.914	-81.7736	41.3042	198.445	-79.3901	71.4598	202.971	-45.4179	47.4611	
43	0.358333	178.601	-11.8957	57.0587	161.621	-1.29326	31.1624	152.676	0.711159	3.85673	139.41	-3.98643	-17.7844	170.381	-38.4797	-21.8521	133.386	-35.3445	-27.1566	116.66	-33.8784	-0.445262	166.213	-62.6957	-22.9242	130.681	-54.9642	-27.513	111.158	-47.8497	3.40633	160.859	-83.4434	-15.6124	125.054	-73.1299	-16.8281	113.375	-65.6313	10.805	155.324	-104.202	1.93901	130.619	-89.1336	-4.16376	121.113	-67.8327	17.6847	195.908	-80.6011	40.5809	199.264	-78.0349	70.9632	201.686	-47.9405	50.9882	
44	0.366667	175.25	-16.3308	53.0939	157.168	-4.00689	30.6825	148.328	-0.400449	3.77643	136.232	0.693747	-19.4	165.439	-35.6416	-26.0774	134.826	-35.1048	-28.1564	116.359	-36.4109	3.68276	161.945	-60.4353	-25.0971	127.102	-57.2254	-24.1411	111.523	-47.3383	9.13602	155.021	-82.1892	-17.2442	122.61	-71.5381	-14.5978	114.946	-63.9413	14.7146	155.596	-98.3715	1.9288	127.663	-87.6806	-1.20054	125.725	-65.4949	19.6355	196.548	-81.4129	35.4428	196.944	-76.87	73.5445	201.518	-44.3843	49.9196	
45	0.375	172.757	-16.1574	53.0997	153.191	-5.46231	26.8585	144.998	0.857094	1.02212	133.445	5.50559	-20.5969	167.016	-37.8418	-23.0671	132.711	-34.563	-26.0557	115.762	-32.9625	6.6633	161.481	-59.1596	-24.9793	127.913	-54.2366	-24.677	113.036	-48.4693	13.0692	157.846	-80.2689	-14.6133	122.162	-71.3696	-12.0158	116.075	-62.1271	18.501	153.137	-101.312	0.242781	130.435	-87.4032	-2.15686	122.869	-68.249	25.5639	194.908	-77.7136	36.9495	198.637	-78.6683	73.8289	201.636	-41.463	45.9794	
46	0.383333	170.118	-13.3453	52.151	150.081	-9.04589	27.6415	140.542	-1.96776	-1.21306	131.172	3.00626	-14.4132	163.55	-34.6234	-22.8308	130.337	-39.3494	-23.7188	115.022	-36.7911	10.689	160.181	-61.5974	-23.3463	124.828	-55.6083	-20.504	115.139	-49.7177	16.3258	157.213	-80.8269	-14.4864	121.853	-72.2479	-9.84021	118.812	-62.8294	21.8966	152.853	-103.423	0.121066	125.637	-88.2356	3.34808	128.749	-68.4528	25.7022	193.654	-82.5921	34.1764	199.187	-78.1204	69.0712	200.653	-44.8325	46.76	
47	0.391667	169.795	-17.194	55.5339	147.804	-7.3956	27.4547	138.945	-1.78013	2.65024	130.824	1.85853	-15.4912	163.423	-34.496	-22.0539	128.192	-41.9344	-22.5609	113.247	-35.3771	6.58459	157.33	-64.6682	-23.4955	121.976	-56.7514	-16.4402	116.855	-47.1525	20.8769	155.902	-82.9619	-13.441	119.756	-75.5335	-5.72018	119.755	-64.336	23.1838	153.595	-101.868	1.52956	129.513	-86.6141	1.68704	129.292	-68.1086	26.65	195.728	-82.3254	37.5682	199.295	-74.6238	72.8085	200.252	-43.1372	50.1521	
48	0.4	169.328	-14.7761	54.3222	147.28	-7.25409	29.4187	138.888	-3.27014	1.04447	129.525	3.3874	-11.2105	158.941	-38.2829	-24.8235	130.212	-37.6348	-24.8297	113.737	-39.2518	6.30891	156.924	-65.1199	-23.0346	123.855	-56.6218	-17.5955	117.505	-47.8323	20.7437	154.549	-81.2102	-14.4257	122.145	-75.4957	-8.01765	122.598	-65.0596	28.9491	154.554	-102.429	3.81253	125.574	-90.9251	3.79643	129.732	-69.3643	27.9383	194.517	-81.8763	39.6067	199.562	-77.4021	70.8569	200.747	-43.3282	48.9933	
49	0.408333	170.467	-17.3748	52.9778	148.925	-9.30519	24.4989	138.632	-3.17058	3.90819	130	3.42879	-13.9593	162.16	-38.8232	-21.8663	126.764	-39.9581	-20.2956	113.854	-37.5008	11.1407	161.177	-61.2624	-21.6588	122.017	-59.7156	-14.6771	117.872	-49.8112	19.52	152.342	-84.8501	-13.1974	122.28	-73.0042	-7.35847	122.729	-63.735	28.8623	156.202	-99.9774	3.7979	126.529	-90.6731	4.69903	128.71	-69.4897	28.246	195.127	-81.9688	37.1737	197.936	-74.5674	70.3817	202.127	-44.1553	49.3154	
